<?xml version="1.0" encoding="UTF-8" standalone="no"?><!DOCTYPE svg PUBLIC "-//W3C//DTD SVG 1.1//EN" "http://www.w3.org/Graphics/SVG/1.1/DTD/svg11.dtd"><svg width="100%" height="100%" viewBox="0 0 512 512" version="1.1" xmlns="http://www.w3.org/2000/svg" xmlns:xlink="http://www.w3.org/1999/xlink" xml:space="preserve" xmlns:serif="http://www.serif.com/" style="fill-rule:evenodd;clip-rule:evenodd;stroke-linejoin:round;stroke-miterlimit:2;"><g><path d="M11.424,228.619c1.231,6.301 9.761,7.385 12.605,1.629c14.996,-30.36 35.137,-54.115 57.593,-71.948c20.985,-16.662 43.997,-28.149 66.739,-35.013c7.029,-2.124 6.222,-12.275 -1.073,-13.146c-17.158,-2.045 -34.919,-1.655 -52.062,1.374c-29.095,5.141 -56.359,17.878 -75.742,39.175c-4.522,4.965 -7.802,10.534 -9.851,17.454c-2.087,7.066 -2.92,15.578 -2.514,26.31c0.3,7.915 1.283,17.289 3.227,28.367c0.33,1.888 0.691,3.82 1.077,5.798" style="fill:#ed1c24;"/></g><path d="M84.423,81.816c-3.1,5.622 2.743,11.93 8.616,9.341c30.994,-13.641 61.691,-18.925 90.362,-18.171c26.892,0.702 52.002,6.717 73.899,16.118c6.699,2.875 12.545,-5.363 7.562,-10.684c-11.881,-12.669 -25.811,-23.845 -40.972,-32.574c-25.601,-14.745 -54.689,-22.483 -83.236,-18.606c-6.65,0.904 -12.737,3.066 -18.76,7.066c-6.132,4.068 -12.234,10.054 -18.809,18.539c-4.886,6.305 -10.162,14.129 -15.754,23.819c-0.961,1.662 -1.929,3.377 -2.908,5.153" style="fill:#3bb764;"/><path d="M239.971,14.152c-7.742,2.837 -7.385,13.788 0.477,16.276c30.206,9.562 55.439,24.554 75.772,42.511c21.8,19.255 38.012,41.933 48.819,65.005c2.466,5.258 10.485,3.347 10.358,-2.458c-0.42,-19.304 -4.008,-39.006 -10.729,-57.357c-10.159,-27.748 -27.481,-52.358 -51.844,-67.711c-5.678,-3.576 -11.735,-5.828 -18.914,-6.631c-7.314,-0.814 -15.837,-0.143 -26.34,2.143c-7.791,1.692 -16.857,4.304 -27.372,8.14l-0.225,0.083Z" style="fill:#ed1c24;"/><path d="M392.015,62.289c-6.079,-2.068 -11.262,4.788 -7.686,10.121c18.869,28.123 29.452,57.424 33.737,85.776c4.004,26.498 2.507,52.174 -2.86,75.31c-1.659,7.153 7.547,11.506 11.934,5.614c10.32,-13.859 18.824,-29.455 24.727,-45.825c10.027,-27.793 12.553,-57.785 3.734,-85.206c-2.057,-6.391 -5.254,-12.005 -10.249,-17.236c-5.085,-5.325 -12.046,-10.283 -21.544,-15.266c-7.036,-3.693 -15.66,-7.509 -26.224,-11.333c-1.801,-0.653 -3.655,-1.306 -5.569,-1.955" style="fill:#1561ae;"/><path d="M482.997,198.691c-3.332,-5.487 -11.709,-3.561 -12.392,2.822c-3.595,33.681 -14.298,62.933 -29.219,87.424c-13.941,22.877 -31.572,41.595 -50.538,55.886c-5.839,4.398 -1.629,13.679 5.49,11.99c16.824,-4 33.377,-10.504 48.433,-19.27c25.526,-14.861 46.718,-36.229 57.563,-62.911c2.529,-6.226 3.685,-12.587 3.216,-19.796c-0.477,-7.344 -2.631,-15.619 -6.717,-25.545c-3.021,-7.348 -7.183,-15.814 -12.819,-25.519c-0.961,-1.659 -1.966,-3.351 -3.017,-5.081" style="fill:#ed1c24;"/><path d="M465.15,361.691c0.968,-6.346 -6.691,-10.249 -11.311,-5.794c-24.382,23.507 -51.368,39.059 -78.53,48.245c-25.384,8.586 -50.925,11.615 -74.642,10.391c-7.337,-0.383 -10.005,9.446 -3.438,12.733c15.454,7.727 32.3,13.364 49.45,16.309c29.125,4.999 59.094,2.225 84.542,-11.262c5.929,-3.145 10.894,-7.277 15.165,-13.101c4.346,-5.929 8.005,-13.652 11.251,-23.897c2.409,-7.599 4.657,-16.76 6.564,-27.793c0.326,-1.888 0.645,-3.832 0.949,-5.832" style="fill:#3bb764;"/><path d="M346.807,475.178c4.819,-4.241 1.452,-12.151 -4.95,-11.705c-33.778,2.36 -64.453,-3.047 -91.177,-13.45c-24.978,-9.716 -46.504,-23.796 -63.902,-39.967c-5.378,-5.002 -13.735,0.818 -10.812,7.554c6.886,15.852 16.182,30.99 27.44,44.267c19.109,22.528 43.862,39.644 72.03,45.645c6.571,1.4 13.033,1.422 20.047,-0.3c7.156,-1.76 14.921,-5.329 23.976,-11.089c6.699,-4.263 14.302,-9.84 22.877,-17.097c1.464,-1.238 2.953,-2.522 4.47,-3.858" style="fill:#ed1c24;"/><path d="M183.217,486.182c6.417,-0.158 8.917,-8.384 3.719,-12.151c-27.418,-19.886 -47.465,-43.734 -61.275,-68.867c-12.902,-23.485 -20.359,-48.099 -23.308,-71.662c-0.912,-7.288 -11.056,-8.196 -13.138,-1.152c-4.905,16.572 -7.502,34.146 -7.397,51.551c0.184,29.542 8.166,58.558 25.909,81.251c4.136,5.291 9.074,9.457 15.555,12.639c6.605,3.239 14.853,5.49 25.507,6.89c7.9,1.036 17.315,1.647 28.517,1.591c1.918,-0.011 3.888,-0.041 5.911,-0.09" style="fill:#0450a3;"/><path d="M50.729,389.549c5.021,4 12.219,-0.698 10.654,-6.928c-8.245,-32.84 -8.294,-63.984 -2.743,-92.115c5.19,-26.292 15.285,-49.956 28.164,-69.921c3.982,-6.173 -3.212,-13.382 -9.333,-9.318c-14.396,9.554 -27.676,21.364 -38.773,34.78c-18.839,22.772 -31.354,50.137 -32.322,78.909c-0.225,6.71 0.886,13.078 3.82,19.694c2.983,6.729 7.858,13.746 15.116,21.653c5.374,5.854 12.2,12.358 20.839,19.526c1.475,1.22 2.998,2.462 4.578,3.719" style="fill:#ed1c24;"/><path d="M154.563,176.412l189.87,0c5.667,0 10.26,4.593 10.26,10.26l0,25.853c0,5.667 -4.593,10.26 -10.26,10.26l-60.682,0c-6.113,0 -11.067,4.954 -11.067,11.067l0,144.739c0,5.663 -4.593,10.256 -10.26,10.256l-25.856,0c-5.663,0 -10.256,-4.593 -10.256,-10.256l0,-144.739c0,-6.113 -4.957,-11.067 -11.071,-11.067l-60.678,0c-5.667,0 -10.26,-4.593 -10.26,-10.26l0,-25.853c0,-5.667 4.593,-10.26 10.26,-10.26" style="fill:#ed1c24;"/></svg>