<?xml version="1.0" standalone="no"?>
<!DOCTYPE svg PUBLIC "-//W3C//DTD SVG 20010904//EN"
 "http://www.w3.org/TR/2001/REC-SVG-20010904/DTD/svg10.dtd">
<svg version="1.0" xmlns="http://www.w3.org/2000/svg"
 width="512.000000pt" height="512.000000pt" viewBox="0 0 512.000000 512.000000"
 preserveAspectRatio="xMidYMid meet">

<g transform="translate(0.000000,512.000000) scale(0.100000,-0.100000)"
fill="#000000" stroke="none">
<path d="M2706 5063 c-107 -19 -319 -89 -339 -111 -23 -25 -22 -87 1 -110 10
-10 61 -33 113 -51 52 -18 153 -61 224 -96 225 -111 382 -224 557 -402 156
-158 259 -298 353 -481 52 -101 78 -121 115 -87 26 24 26 88 1 260 -41 275
-139 527 -277 716 -95 129 -261 282 -364 334 -90 46 -230 56 -384 28z"/>
<path d="M3860 4482 c-33 -27 -28 -63 22 -144 178 -290 276 -570 309 -882 17
-156 6 -452 -21 -589 -19 -98 -20 -111 -6 -132 33 -50 79 -37 134 37 137 186
253 465 293 708 17 98 16 305 0 400 -44 248 -119 351 -349 477 -80 44 -318
143 -345 143 -8 0 -25 -8 -37 -18z"/>
<path d="M1120 4024 c-391 -46 -643 -149 -859 -350 -149 -138 -185 -232 -184
-474 2 -186 32 -376 64 -402 40 -33 79 -18 110 45 236 470 657 842 1144 1014
106 37 138 61 133 101 -6 52 -38 62 -213 66 -88 2 -176 2 -195 0z"/>
<path d="M1478 3321 l-33 -29 0 -160 c0 -112 4 -166 13 -183 28 -53 31 -54
399 -57 l342 -3 29 -29 c17 -17 32 -44 35 -67 4 -21 7 -367 7 -769 l0 -731 25
-25 c32 -32 62 -38 200 -38 138 0 168 6 200 38 l25 25 0 731 c0 402 3 748 7
769 3 23 18 50 35 68 l30 29 318 0 c174 0 331 3 349 6 17 4 42 18 56 32 25 25
25 26 25 197 l0 173 -31 26 -31 26 -984 0 -984 0 -32 -29z"/>
<path d="M4727 3143 c-8 -10 -20 -54 -27 -98 -76 -527 -325 -986 -705 -1303
-49 -41 -96 -86 -103 -99 -16 -30 -8 -59 24 -79 22 -15 30 -15 106 6 325 87
641 284 823 513 75 95 117 162 165 267 30 66 35 87 38 175 3 91 1 109 -28 198
-17 54 -44 127 -61 164 -46 103 -137 260 -155 267 -29 11 -61 6 -77 -11z"/>
<path d="M790 3013 c-29 -12 -156 -111 -235 -184 -214 -198 -353 -406 -430
-643 -44 -137 -58 -234 -53 -352 6 -119 30 -181 115 -292 65 -85 277 -290 328
-318 32 -17 38 -18 63 -4 15 9 28 26 30 38 2 13 -9 89 -25 170 -25 135 -28
166 -28 387 0 251 6 304 52 490 46 187 118 366 215 533 63 110 66 125 34 156
-25 26 -38 29 -66 19z"/>
<path d="M916 1827 c-22 -16 -61 -170 -81 -325 -44 -333 16 -662 168 -917 143
-242 284 -308 682 -322 158 -5 171 -4 187 13 16 19 21 36 19 66 0 9 -45 52
-98 95 -411 331 -673 769 -758 1273 -9 52 -24 103 -32 113 -19 20 -62 22 -87
4z"/>
<path d="M1795 1028 c-47 -26 -46 -56 4 -161 148 -308 414 -589 689 -726 163
-82 348 -118 463 -91 109 25 269 119 434 252 100 82 118 112 91 152 l-16 26
-168 0 c-531 1 -968 156 -1357 481 -88 73 -110 84 -140 67z"/>
</g>
</svg>
